PathFileType	4	(X/Y/Z)	\\Move.snu.ac.kr\motion\Animal\091204_091205_Bird\091205_bird\Project 2\Capture day 2\Session 1\pigeon_011.trc
DataRate	CameraRate	NumFrames	NumMarkers	Units	OrigDataRate	OrigDataStartFrame	OrigNumFrames
240.0	240.0	10	14	mm	240.0	139	1439
Frame#	Time	14MarkersBird:Head			14MarkersBird:C_back			14MarkersBird:Spine			14MarkersBird:L-shoulder			14MarkersBird:L-elbow			14MarkersBird:L-wrist			14MarkersBird:L-hand			14MarkersBird:R-shoulder			14MarkersBird:R-elbow			14MarkersBird:R-Wrist			14MarkersBird:R-hand			14MarkersBird:C_Tail			14MarkersBird:L-Tale			14MarkersBird:R-Tale			
		X1	Y1	Z1	X2	Y2	Z2	X3	Y3	Z3	X4	Y4	Z4	X5	Y5	Z5	X6	Y6	Z6	X7	Y7	Z7	X8	Y8	Z8	X9	Y9	Z9	X10	Y10	Z10	X11	Y11	Z11	X12	Y12	Z12	X13	Y13	Z13	X14	Y14	Z14	

756	3.146	-497.13712	759.36243	-284.11630	-515.14899	761.55438	-343.31366	-537.29071	759.64557	-391.64093	-489.14246	753.36902	-322.99731	-492.69061	778.80188	-352.09494	-454.31958	797.00183	-346.92416	-452.11649	817.40497	-367.20068	-525.25604	760.68188	-308.03659	-526.45453	787.04889	-333.58029	-548.74121	819.25903	-308.53131	-564.23682	853.29498	-327.95953	-580.19720	691.12488	-488.66678	-471.67834	713.49213	-457.75067	-647.87775	759.69836	-398.16730	
757	3.150	-491.97266	753.23419	-268.67099	-510.26471	756.34650	-326.84818	-532.39276	752.69312	-376.27164	-483.73154	746.89240	-307.64374	-484.31897	772.07928	-336.80048	-444.43933	788.29126	-334.36282	-439.13812	810.78564	-351.30713	-521.32507	754.38495	-292.30585	-524.24780	782.03265	-315.62247	-549.32294	812.46411	-293.00000	-563.41699	849.82587	-306.64496	-573.67444	688.48126	-475.95496	-465.42651	709.06879	-441.99112	-643.02081	752.48975	-380.97488	
758	3.154	-486.90475	747.22461	-253.31467	-505.21750	750.95447	-310.94962	-527.52863	745.82501	-361.00598	-478.37949	740.66724	-292.32867	-475.86792	764.52856	-321.79092	-434.42517	777.10364	-321.46863	-423.84344	799.03778	-336.42795	-517.07550	748.27899	-276.62094	-522.86768	776.69836	-298.22751	-550.57922	803.51978	-276.19788	-566.59949	841.45563	-283.29459	-567.26965	686.74792	-463.24844	-459.70505	703.86243	-426.42624	-638.54230	742.72284	-364.04321	
759	3.158	-481.92328	741.37811	-238.01303	-499.96475	745.23999	-295.68445	-522.61316	739.17639	-345.79974	-473.06061	734.67426	-277.06052	-467.34576	756.04523	-306.70404	-424.55411	763.97095	-307.32883	-408.25403	783.19403	-321.14285	-512.40375	742.19336	-260.85553	-521.71643	770.45215	-281.40869	-551.55750	792.65704	-257.80771	-571.50873	828.69580	-258.76187	-561.36621	685.29388	-450.13968	-454.30392	697.98438	-411.07007	-634.09918	731.46014	-347.49329	
760	3.162	-476.96347	735.70123	-222.70442	-494.46866	739.24524	-280.84940	-517.56110	732.88245	-330.60864	-467.69214	728.78680	-261.81741	-460.31815	747.40271	-291.39975	-415.06699	749.41772	-291.39117	-393.92670	764.60529	-304.13409	-507.40207	735.94781	-244.96794	-520.41833	763.11646	-264.59027	-551.49896	780.05402	-237.87589	-575.95874	812.26398	-233.36320	-556.10522	683.03912	-436.22562	-449.11166	691.39423	-395.89041	-629.33813	719.89203	-331.45032	
761	3.167	-471.95526	730.18494	-207.33115	-488.75247	733.27118	-266.01300	-512.28729	727.07831	-315.38846	-462.17029	722.92352	-246.51747	-451.11493	736.60992	-275.83905	-406.33527	733.89508	-273.49991	-381.68195	744.44940	-284.84433	-502.12549	729.56567	-228.98796	-518.73993	754.88654	-247.03542	-549.84644	765.76703	-216.87202	-578.42950	792.76874	-207.37010	-551.22589	678.92535	-421.26218	-444.09030	684.20313	-380.83908	-624.07220	708.86316	-316.06451	
762	3.171	-466.85376	724.80334	-191.84813	-482.86429	727.47528	-251.05894	-506.70648	721.89923	-300.09491	-456.44858	717.08331	-231.07909	-441.95355	726.34387	-259.89163	-398.84042	717.90900	-253.84579	-371.94656	723.52130	-263.30579	-496.59390	723.23907	-212.99744	-516.57904	745.96259	-228.40996	-546.27240	749.99237	-195.47816	-577.97681	770.70374	-181.33414	-546.22040	672.49554	-405.22354	-439.25867	676.69928	-365.80441	-618.27808	698.89594	-301.44858	
763	3.175	-461.61069	719.51855	-176.24290	-476.84946	722.02362	-235.84669	-500.73352	717.48035	-284.68378	-450.56793	711.33575	-215.46652	-433.23395	716.10144	-243.23294	-393.04001	702.05560	-232.90723	-365.07297	702.39764	-239.88264	-490.88809	717.13617	-197.07492	-513.78571	736.40558	-209.01956	-540.66302	733.22028	-174.38133	-574.02582	746.67206	-156.07010	-540.69940	664.11609	-388.23737	-434.62442	669.20465	-350.67169	-612.03766	690.41180	-287.56699	
764	3.179	-456.18494	714.28528	-160.53255	-470.77893	717.00104	-220.33614	-494.41132	713.76215	-269.18271	-444.61102	705.78546	-199.68443	-425.20395	706.10455	-226.13910	-389.15805	687.01398	-211.28461	-361.42996	681.74811	-215.15273	-485.10663	711.30719	-181.24907	-510.10721	726.33789	-189.52924	-533.00201	716.21240	-154.17932	-566.25989	721.55804	-132.42514	-534.63153	654.72760	-370.54138	-430.12482	661.94403	-335.41879	-605.52087	683.62683	-274.12415	
765	3.183	-450.55453	709.07141	-144.73174	-464.69788	712.38794	-204.58507	-488.16937	709.86157	-253.61763	-438.62561	700.53748	-183.74806	-418.04056	696.54565	-208.92146	-387.05301	673.47552	-189.54303	-361.13589	662.59680	-189.86618	-479.24875	705.77289	-165.45641	-505.39111	716.15961	-170.56363	-523.34424	699.83917	-135.32066	-554.69104	696.60785	-111.07512	-528.31598	645.36798	-352.45816	-425.66391	654.95203	-320.05087	-598.93152	678.34851	-260.62442	
